HIERARCHY
ROOT Hips
{
	OFFSET 0.000000 0.000000 0.000000
	CHANNELS 6 Xposition Yposition Zposition Xrotation Yrotation Zrotation
	JOINT LeftUpLeg_virtual
	{
		OFFSET 0.000000 0.000000 0.000000
		CHANNELS 3 Xrotation Yrotation Zrotation
		JOINT LeftUpLeg
		{
			OFFSET 11.394100 -6.187798 -0.413800
			CHANNELS 3 Xrotation Yrotation Zrotation
			JOINT LeftLeg
			{
				OFFSET 0.430247 -32.302673 3.732800
				CHANNELS 3 Xrotation Yrotation Zrotation
				JOINT LeftFoot
				{
					OFFSET -0.430247 -48.264931 -6.423300
					CHANNELS 3 Xrotation Yrotation Zrotation
					JOINT LeftToeBase
					{
						OFFSET 4.230900 -16.068199 23.438400
						CHANNELS 3 Xrotation Yrotation Zrotation
						JOINT LeftToe_End
						{
							OFFSET 4.510700 0.695400 19.974600
							CHANNELS 3 Xrotation Yrotation Zrotation
							End Site
							{
								OFFSET 0 0 0
							}
						}
					}
				}
			}
		}
	}
	JOINT RightUpLeg_virtual
	{
		OFFSET 0.000000 0.000000 0.000000
		CHANNELS 3 Xrotation Yrotation Zrotation
		JOINT RightUpLeg
		{
			OFFSET -11.333700 -6.187798 -0.413800
			CHANNELS 3 Xrotation Yrotation Zrotation
			JOINT RightLeg
			{
				OFFSET -0.430392 -32.302628 3.733000
				CHANNELS 3 Xrotation Yrotation Zrotation
				JOINT RightFoot
				{
					OFFSET 0.430392 -48.264973 -6.423500
					CHANNELS 3 Xrotation Yrotation Zrotation
					JOINT RightToeBase
					{
						OFFSET -4.230900 -16.068199 23.438400
						CHANNELS 3 Xrotation Yrotation Zrotation
						JOINT RightToe_End
						{
							OFFSET -4.510700 0.695400 19.974600
							CHANNELS 3 Xrotation Yrotation Zrotation
							End Site
							{
								OFFSET 0 0 0
							}
						}
					}
				}
			}
		}
	}
	JOINT Spine_virtual
	{
		OFFSET 0.000000 0.000000 0.000000
		CHANNELS 3 Xrotation Yrotation Zrotation
		JOINT Spine
		{
			OFFSET -0.002400 12.777504 0.315300
			CHANNELS 3 Xrotation Yrotation Zrotation
			JOINT Spine1
			{
				OFFSET -0.002067 5.816869 0.032633
				CHANNELS 3 Xrotation Yrotation Zrotation
				JOINT Spine1_split
				{
					OFFSET -0.002067 5.816869 0.032633
					CHANNELS 3 Xrotation Yrotation Zrotation
					JOINT Spine2
					{
						OFFSET -0.002067 5.816869 0.032633
						CHANNELS 3 Xrotation Yrotation Zrotation
						JOINT Neck_virtual
						{
							OFFSET 0.000000 0.000000 0.000000
							CHANNELS 3 Xrotation Yrotation Zrotation
							JOINT Neck
							{
								OFFSET -0.003700 21.199493 -0.826900
								CHANNELS 3 Xrotation Yrotation Zrotation
								JOINT Head
								{
									OFFSET 0.000000 20.442200 4.834800
									CHANNELS 3 Xrotation Yrotation Zrotation
									JOINT HeadTop_End
									{
										OFFSET 0.000000 34.668396 4.968400
										CHANNELS 3 Xrotation Yrotation Zrotation
										End Site
										{
											OFFSET 0 0 0
										}
									}
								}
							}
						}
						JOINT LeftShoulder_virtual
						{
							OFFSET 0.000000 0.000000 0.000000
							CHANNELS 3 Xrotation Yrotation Zrotation
							JOINT LeftShoulder
							{
								OFFSET 3.288150 8.794197 -1.372250
								CHANNELS 3 Xrotation Yrotation Zrotation
								JOINT LeftShoulder_split
								{
									OFFSET 3.288150 8.794197 -1.372250
									CHANNELS 3 Xrotation Yrotation Zrotation
									JOINT LeftArm
									{
										OFFSET 11.953299 -2.279007 -0.146200
										CHANNELS 3 Xrotation Yrotation Zrotation
										JOINT LeftForeArm
										{
											OFFSET 18.448900 0.000000 0.000000
											CHANNELS 3 Xrotation Yrotation Zrotation
											JOINT LeftHand
											{
												OFFSET 29.527798 0.000000 0.000000
												CHANNELS 3 Xrotation Yrotation Zrotation
												End Site
												{
													OFFSET 0 0 0
												}
											}
										}
									}
								}
							}
						}
						JOINT RightShoulder_virtual
						{
							OFFSET 0.000000 0.000000 0.000000
							CHANNELS 3 Xrotation Yrotation Zrotation
							JOINT RightShoulder
							{
								OFFSET -3.249400 8.794197 -1.372250
								CHANNELS 3 Xrotation Yrotation Zrotation
								JOINT RightShoulder_split
								{
									OFFSET -3.249400 8.794197 -1.372250
									CHANNELS 3 Xrotation Yrotation Zrotation
									JOINT RightArm
									{
										OFFSET -11.953299 -2.279007 -0.146200
										CHANNELS 3 Xrotation Yrotation Zrotation
										JOINT RightForeArm
										{
											OFFSET -18.448900 0.000000 0.000000
											CHANNELS 3 Xrotation Yrotation Zrotation
											JOINT RightHand
											{
												OFFSET -29.527802 0.000000 0.000000
												CHANNELS 3 Xrotation Yrotation Zrotation
												End Site
												{
													OFFSET 0 0 0
												}
											}
										}
									}
								}
							}
						}
					}
				}
			}
		}
	}
}
MOTION
Frames: 11
Frame Time: 0.03333333
4.499955 80.751984 -9.362465 0.000000 0.000000 0.000000 -5.402924 -35.888423 14.702146 -19.278200 31.737184 5.944612 48.249884 -1.317336 4.638641 -17.574133 17.456819 -5.722959 -0.010464 -1.149579 -1.487160 0.000000 0.000000 0.000000 -4.741242 -32.520286 14.926521 -42.233894 11.249147 -23.738025 70.026767 8.245894 -6.995828 -22.356679 -14.829939 36.740943 5.754737 7.611741 -31.339585 0.000000 0.000000 0.000000 -7.786357 -31.085058 13.495611 -2.291829 -7.431135 5.555597 3.730149 -0.244473 2.426329 0.100232 -0.498009 0.044061 0.000000 0.000000 0.000000 2.475326 2.286950 3.021099 -17.651384 18.606296 19.577735 10.468262 -22.301145 -34.666751 0.000000 0.000000 0.000000 4.595073 -0.654583 2.955275 -0.873319 -5.750329 14.912576 -7.069013 1.814831 0.052311 -26.574253 -36.118368 -27.676802 83.742948 -83.571019 78.611290 0.000000 0.000000 0.000000 3.814189 0.348322 2.911202 -2.083390 6.177562 12.235248 -5.250418 -4.278264 5.146408 37.352180 68.724831 -9.241773 -17.173437 45.446439 26.905659 0.000000 0.000000 0.000000 
5.310442 81.154724 -8.858700 0.000000 0.000000 0.000000 -4.347567 -34.894122 15.520138 -20.580007 31.411736 5.121965 47.530139 -1.348095 4.911849 -16.715828 16.439707 -5.276012 -0.116647 -0.836571 -2.240159 0.000000 0.000000 0.000000 -3.919785 -31.586234 15.661711 -43.451662 11.274015 -23.881055 69.559159 8.088671 -6.601704 -20.991029 -14.115395 36.318179 4.853056 7.726042 -30.972555 0.000000 0.000000 0.000000 -6.719239 -29.800815 14.414525 -1.921091 -7.063129 5.645723 3.631708 -0.200552 2.361146 0.112120 -0.443433 0.007615 0.000000 0.000000 0.000000 2.443869 2.353587 2.946559 -17.834216 18.344454 18.856411 10.155270 -21.799097 -34.942913 0.000000 0.000000 0.000000 4.402948 -0.489034 2.830140 -0.839078 -5.908531 14.734658 -6.258055 1.930086 -0.181666 -25.658463 -36.620373 -27.296965 108.433583 -83.517559 103.934073 0.000000 0.000000 0.000000 3.933624 0.499705 2.851832 -2.050264 5.222723 12.669571 -4.857569 -4.089881 4.681752 38.577113 69.104207 -10.636992 -16.018411 44.559358 25.571815 0.000000 0.000000 0.000000 
6.107130 81.875938 -8.435326 0.000000 0.000000 0.000000 -3.371497 -33.721993 16.238570 -21.739795 31.303184 4.294927 46.164180 -1.363906 5.065766 -15.796317 15.217161 -4.960601 0.327763 -0.552714 -2.699610 0.000000 0.000000 0.000000 -3.119855 -30.769217 16.372433 -44.883232 11.081039 -23.869817 68.567695 8.041693 -6.272217 -19.560379 -13.101160 35.443539 4.590911 7.504360 -30.481212 0.000000 0.000000 0.000000 -5.729175 -28.266408 15.204773 -1.301450 -6.745808 5.936691 3.536687 -0.129730 2.281193 0.097623 -0.469048 -0.030154 0.000000 0.000000 0.000000 2.495435 2.420916 2.862715 -18.164101 17.958649 18.161642 9.405685 -21.229054 -35.537478 0.000000 0.000000 0.000000 4.210835 -0.296745 2.679327 -0.876374 -5.775333 14.257785 -5.487767 1.978366 -0.385468 -23.683978 -36.647247 -26.845881 127.150405 -82.368352 123.316757 0.000000 0.000000 0.000000 4.039546 0.640395 2.746198 -1.956646 4.434033 12.844832 -4.602995 -3.940504 4.487260 42.288245 69.272817 -15.085304 -14.934267 43.410814 24.279002 0.000000 0.000000 0.000000 
6.853320 82.845032 -8.109467 0.000000 0.000000 0.000000 -2.503989 -32.344764 16.799074 -22.628065 31.302337 3.469230 44.252505 -1.296252 5.091091 -14.879092 13.932405 -4.595856 1.191383 -0.326475 -2.748682 0.000000 0.000000 0.000000 -2.380805 -29.888409 16.981677 -46.397414 10.642064 -23.736026 67.039987 8.046749 -5.961400 -18.172992 -11.887566 34.045518 5.135579 6.944800 -29.991296 0.000000 0.000000 0.000000 -4.844930 -26.509346 15.809639 -0.492376 -6.504042 6.305492 3.430233 -0.019227 2.196579 0.085942 -0.578780 -0.043867 0.000000 0.000000 0.000000 2.695398 2.508198 2.777262 -18.528447 17.501958 17.516797 8.176075 -20.506159 -36.314630 0.000000 0.000000 0.000000 4.029735 -0.088460 2.510925 -1.003337 -5.373134 13.574540 -4.774788 2.008914 -0.386952 -21.277677 -36.220555 -26.518829 137.108753 -81.047435 133.940570 0.000000 0.000000 0.000000 4.083716 0.747591 2.603793 -1.787977 3.819992 12.739587 -4.478539 -3.905356 4.581006 47.995517 69.255577 -21.932953 -14.019651 41.895779 23.123143 0.000000 0.000000 0.000000 
7.470780 83.928459 -7.875374 0.000000 0.000000 0.000000 -1.773890 -30.754388 17.135717 -23.266047 31.302818 2.760501 42.027086 -1.107613 5.001882 -13.991392 12.696068 -4.118667 2.026816 -0.140779 -2.582629 0.000000 0.000000 0.000000 -1.716424 -28.712415 17.371570 -47.826146 10.044354 -23.549693 65.143865 8.224713 -5.726019 -16.586196 -10.462172 32.682568 5.610961 6.303451 -29.691355 0.000000 0.000000 0.000000 -4.154448 -24.555678 16.185219 0.431089 -6.368044 6.613443 3.336912 0.137861 2.108870 0.072474 -0.734763 -0.003379 0.000000 0.000000 0.000000 3.067533 2.627813 2.725080 -18.774155 17.112870 16.939156 6.558089 -19.678099 -37.035106 0.000000 0.000000 0.000000 3.863749 0.129147 2.341188 -1.198553 -4.796151 12.784917 -4.248319 1.998172 -0.200771 -19.255096 -35.379977 -26.534931 141.446592 -80.158130 138.871898 0.000000 0.000000 0.000000 4.061692 0.826652 2.455718 -1.547290 3.335154 12.384195 -4.399545 -3.869269 4.762996 54.653941 69.151130 -30.000844 -13.371840 39.978562 22.190253 0.000000 0.000000 0.000000 
7.973993 85.019104 -7.738293 0.000000 0.000000 0.000000 -1.225643 -29.000987 17.202386 -23.721032 31.190414 2.213285 39.882048 -0.815948 4.895803 -13.033125 11.522725 -3.631688 2.137201 0.029369 -2.305671 0.000000 0.000000 0.000000 -1.194911 -27.239146 17.441629 -48.950463 9.273389 -23.374333 63.168062 8.614641 -5.600780 -14.619684 -8.875837 31.790839 5.352911 5.744565 -29.723255 0.000000 0.000000 0.000000 -3.651541 -22.465993 16.311006 1.311910 -6.355447 6.754087 3.273180 0.337358 2.032537 0.060822 -0.937890 0.045917 0.000000 0.000000 0.000000 3.548799 2.779140 2.708827 -18.745949 16.812625 16.398488 4.725620 -18.915408 -37.466695 0.000000 0.000000 0.000000 3.728251 0.354998 2.208436 -1.444823 -4.123661 12.086887 -3.691581 2.056910 0.231450 -18.236598 -34.333308 -27.048101 142.477008 -79.875033 140.418512 0.000000 0.000000 0.000000 3.991753 0.891024 2.335863 -1.259563 2.933658 11.852607 -4.335322 -3.829016 4.904652 60.887988 69.298211 -37.810636 -13.045718 37.829686 21.548137 0.000000 0.000000 0.000000 
8.367671 86.012245 -7.624329 0.000000 0.000000 0.000000 -0.924380 -27.095016 16.958318 -24.105271 30.987271 1.854833 38.199284 -0.457155 4.815563 -11.927891 10.435852 -3.242655 1.659672 0.186875 -2.182770 0.000000 0.000000 0.000000 -0.894876 -25.555576 17.162939 -49.632925 8.206841 -23.240270 61.297102 9.153857 -5.579005 -12.625450 -7.347299 31.272813 4.693869 5.197207 -30.060704 0.000000 0.000000 0.000000 -3.304483 -20.367484 16.151121 1.998838 -6.445697 6.688128 3.237362 0.557801 1.970617 0.060847 -1.073271 0.098697 0.000000 0.000000 0.000000 4.020219 2.949517 2.728503 -18.358758 16.629178 15.864055 2.795840 -18.401359 -37.388780 0.000000 0.000000 0.000000 3.628412 0.570491 2.107425 -1.675826 -3.525078 11.625631 -3.010821 2.419484 0.836410 -18.618078 -33.443417 -28.206130 140.951294 -80.292644 139.326310 0.000000 0.000000 0.000000 3.940046 0.966633 2.273924 -0.970493 2.620906 11.226247 -4.242256 -3.834733 4.962209 65.842252 69.943917 -44.454665 -13.030049 35.682407 21.182553 0.000000 0.000000 0.000000 
8.679553 86.838295 -7.554203 0.000000 0.000000 0.000000 -0.856497 -25.119660 16.433065 -24.691870 30.805915 1.805849 37.216796 -0.064562 4.738409 -10.675176 9.415601 -3.084339 1.095432 0.352911 -2.435857 0.000000 0.000000 0.000000 -0.792888 -23.811655 16.583752 -49.785860 6.785384 -23.128872 59.527981 9.703112 -5.623453 -11.285514 -6.154066 30.685906 4.408726 4.508650 -30.551327 0.000000 0.000000 0.000000 -3.095132 -18.313206 15.731830 2.439446 -6.579110 6.426365 3.256086 0.789408 1.908309 0.051173 -1.126567 0.128832 0.000000 0.000000 0.000000 4.398068 3.121548 2.753195 -17.622711 16.510608 15.372686 0.840134 -18.188587 -36.746947 0.000000 0.000000 0.000000 3.582544 0.782522 2.020848 -1.853345 -3.097271 11.477540 -2.111954 2.893502 1.330239 -20.025920 -32.836169 -29.752994 136.195557 -81.367122 134.917724 0.000000 0.000000 0.000000 3.951117 1.079216 2.269432 -0.720604 2.366067 10.598272 -4.051421 -3.677554 4.791572 68.817892 71.326026 -49.289900 -13.314911 33.864044 21.089135 0.000000 0.000000 0.000000 
8.913063 87.472900 -7.462116 0.000000 0.000000 0.000000 -0.982798 -23.160712 15.686696 -25.466019 30.716822 2.010241 36.845152 0.406694 4.624518 -9.464979 8.452430 -2.998808 0.677060 0.511827 -2.855835 0.000000 0.000000 0.000000 -0.823210 -22.129285 15.817122 -49.467201 5.032824 -23.026818 57.998066 10.060431 -5.673763 -10.834494 -5.481790 29.628104 4.887550 3.646612 -31.018013 0.000000 0.000000 0.000000 -2.990489 -16.375158 15.081942 2.617072 -6.654054 6.010075 3.335104 0.999021 1.832465 0.037497 -1.086157 0.118131 0.000000 0.000000 0.000000 4.639806 3.283807 2.730577 -16.676175 16.332891 14.966679 -1.224066 -18.280364 -35.578971 0.000000 0.000000 0.000000 3.612001 0.985332 1.927872 -1.947332 -2.913450 11.685854 -1.191314 3.219672 1.651779 -21.679374 -32.588390 -31.335634 125.478348 -82.906072 124.577214 0.000000 0.000000 0.000000 4.042306 1.227704 2.302458 -0.538072 2.135512 10.017961 -3.788484 -3.400299 4.456842 68.910612 73.444730 -51.363255 -13.845437 32.687188 21.216670 0.000000 0.000000 0.000000 
9.020702 87.967514 -7.371765 0.000000 0.000000 0.000000 -1.231038 -21.229814 14.802097 -26.346910 30.714247 2.451690 36.896009 0.905343 4.443898 -8.431656 7.547222 -2.958679 0.689783 0.641032 -3.313698 0.000000 0.000000 0.000000 -0.963718 -20.518809 14.948986 -48.887236 3.137594 -22.915397 56.742005 10.210914 -5.729710 -10.863655 -5.253236 28.275052 5.805837 2.743264 -31.437776 0.000000 0.000000 0.000000 -2.986111 -14.485848 14.253922 2.611281 -6.567769 5.519998 3.484473 1.183521 1.720537 0.035483 -0.948052 0.103908 0.000000 0.000000 0.000000 4.789873 3.436047 2.637454 -15.680711 16.102185 14.700056 -3.605659 -18.483272 -34.044835 0.000000 0.000000 0.000000 3.714516 1.177973 1.792125 -1.949137 -2.958608 12.154258 -0.498310 3.154232 1.665684 -23.110980 -32.802154 -32.784727 103.046955 -84.276659 102.577980 0.000000 0.000000 0.000000 4.220799 1.407798 2.338352 -0.429978 1.911933 9.499396 -3.413612 -3.010932 3.984653 64.902554 75.980547 -49.419813 -14.565880 32.312628 21.520622 0.000000 0.000000 0.000000 
9.011224 88.358452 -7.355278 0.000000 0.000000 0.000000 -1.548055 -19.388691 13.843071 -27.292246 30.722771 3.142615 37.153733 1.354073 4.189673 -7.589772 6.626420 -2.978934 0.788815 0.739899 -3.569424 0.000000 0.000000 0.000000 -1.162635 -18.918396 14.011877 -48.218161 1.359433 -22.770444 55.723006 10.339739 -5.849932 -10.904098 -5.204481 27.274077 6.379529 2.032621 -31.901696 0.000000 0.000000 0.000000 -3.045649 -12.600672 13.310067 2.514581 -6.247879 5.004177 3.714215 1.339605 1.554002 0.033239 -0.803866 0.080976 0.000000 0.000000 0.000000 4.929165 3.580916 2.445703 -14.801442 15.824322 14.605880 -6.395408 -18.611820 -32.361979 0.000000 0.000000 0.000000 3.902638 1.361904 1.598556 -1.893027 -3.184457 12.786437 -0.081485 2.879173 1.231862 -24.285023 -33.707752 -34.063451 69.757699 -84.214662 69.838643 0.000000 0.000000 0.000000 4.436657 1.590065 2.332341 -0.390244 1.628953 9.063460 -3.037584 -2.541000 3.436953 54.424064 78.525510 -40.961536 -15.420474 32.789494 21.979224 0.000000 0.000000 0.000000 
